<mxfile host="app.diagrams.net" modified="2021-02-11T06:56:50.206Z" agent="5.0 (Windows)" etag="vJgj67SpvfNpE6gKtI00" version="14.3.0" type="github">
  <diagram id="nvlADpDcZgPZWJ2YtUpK" name="Page-1">
    <mxGraphModel dx="1182" dy="772" grid="1" gridSize="10" guides="1" tooltips="1" connect="1" arrows="1" fold="1" page="1" pageScale="1" pageWidth="850" pageHeight="1100" math="0" shadow="0">
      <root>
        <mxCell id="0" />
        <mxCell id="1" parent="0" />
        <mxCell id="Sv8G7FpVtAjmq9Fmex0C-13" value="" style="edgeStyle=orthogonalEdgeStyle;rounded=0;orthogonalLoop=1;jettySize=auto;html=1;" parent="1" source="Sv8G7FpVtAjmq9Fmex0C-1" target="Sv8G7FpVtAjmq9Fmex0C-8" edge="1">
          <mxGeometry relative="1" as="geometry" />
        </mxCell>
        <mxCell id="Sv8G7FpVtAjmq9Fmex0C-1" value="OC4_ISR" style="rounded=1;whiteSpace=wrap;html=1;" parent="1" vertex="1">
          <mxGeometry x="200" y="80" width="120" height="30" as="geometry" />
        </mxCell>
        <mxCell id="Sv8G7FpVtAjmq9Fmex0C-35" value="" style="edgeStyle=orthogonalEdgeStyle;rounded=0;orthogonalLoop=1;jettySize=auto;html=1;" parent="1" source="Sv8G7FpVtAjmq9Fmex0C-2" target="Sv8G7FpVtAjmq9Fmex0C-23" edge="1">
          <mxGeometry relative="1" as="geometry" />
        </mxCell>
        <mxCell id="Sv8G7FpVtAjmq9Fmex0C-2" value="CONT_TICKS &amp;lt;- CONT_TICKS +1" style="whiteSpace=wrap;html=1;" parent="1" vertex="1">
          <mxGeometry x="155" y="290" width="210" height="30" as="geometry" />
        </mxCell>
        <mxCell id="Sv8G7FpVtAjmq9Fmex0C-3" value="Retorno" style="rounded=1;whiteSpace=wrap;html=1;" parent="1" vertex="1">
          <mxGeometry x="197.5" y="1180" width="120" height="30" as="geometry" />
        </mxCell>
        <mxCell id="Sv8G7FpVtAjmq9Fmex0C-15" value="" style="edgeStyle=orthogonalEdgeStyle;rounded=0;orthogonalLoop=1;jettySize=auto;html=1;" parent="1" source="Sv8G7FpVtAjmq9Fmex0C-4" target="Sv8G7FpVtAjmq9Fmex0C-3" edge="1">
          <mxGeometry relative="1" as="geometry" />
        </mxCell>
        <mxCell id="Sv8G7FpVtAjmq9Fmex0C-4" value="&lt;div&gt;RR1 &amp;lt;-(TCNT)&lt;/div&gt;&lt;div&gt;RR1 &amp;lt;- (RR1) + 30&lt;br&gt;&lt;/div&gt;&lt;div&gt;TC$ &amp;lt;- (RR1)&lt;/div&gt;" style="whiteSpace=wrap;html=1;" parent="1" vertex="1">
          <mxGeometry x="190" y="1090" width="135" height="70" as="geometry" />
        </mxCell>
        <mxCell id="Sv8G7FpVtAjmq9Fmex0C-7" value="" style="edgeStyle=orthogonalEdgeStyle;rounded=0;orthogonalLoop=1;jettySize=auto;html=1;" parent="1" source="Sv8G7FpVtAjmq9Fmex0C-5" target="Sv8G7FpVtAjmq9Fmex0C-6" edge="1">
          <mxGeometry relative="1" as="geometry" />
        </mxCell>
        <mxCell id="Sv8G7FpVtAjmq9Fmex0C-11" style="edgeStyle=orthogonalEdgeStyle;rounded=0;orthogonalLoop=1;jettySize=auto;html=1;entryX=1;entryY=0.5;entryDx=0;entryDy=0;" parent="1" source="Sv8G7FpVtAjmq9Fmex0C-5" target="Sv8G7FpVtAjmq9Fmex0C-9" edge="1">
          <mxGeometry relative="1" as="geometry">
            <Array as="points">
              <mxPoint x="380" y="149" />
              <mxPoint x="380" y="258" />
            </Array>
          </mxGeometry>
        </mxCell>
        <mxCell id="Sv8G7FpVtAjmq9Fmex0C-5" value="Cont_Delay = 0" style="shape=hexagon;perimeter=hexagonPerimeter2;whiteSpace=wrap;html=1;fixedSize=1;" parent="1" vertex="1">
          <mxGeometry x="190" y="129" width="140" height="40" as="geometry" />
        </mxCell>
        <mxCell id="Sv8G7FpVtAjmq9Fmex0C-14" value="" style="edgeStyle=orthogonalEdgeStyle;rounded=0;orthogonalLoop=1;jettySize=auto;html=1;" parent="1" source="Sv8G7FpVtAjmq9Fmex0C-6" target="Sv8G7FpVtAjmq9Fmex0C-9" edge="1">
          <mxGeometry relative="1" as="geometry" />
        </mxCell>
        <mxCell id="Sv8G7FpVtAjmq9Fmex0C-6" value="Cont_Delay &amp;lt;- Cont_Delay - 1" style="whiteSpace=wrap;html=1;" parent="1" vertex="1">
          <mxGeometry x="155" y="199" width="210" height="30" as="geometry" />
        </mxCell>
        <mxCell id="Sv8G7FpVtAjmq9Fmex0C-8" value="No" style="text;html=1;align=center;verticalAlign=middle;resizable=0;points=[];autosize=1;" parent="1" vertex="1">
          <mxGeometry x="255" y="169" width="30" height="20" as="geometry" />
        </mxCell>
        <mxCell id="Sv8G7FpVtAjmq9Fmex0C-19" value="" style="edgeStyle=orthogonalEdgeStyle;rounded=0;orthogonalLoop=1;jettySize=auto;html=1;" parent="1" target="Sv8G7FpVtAjmq9Fmex0C-2" edge="1">
          <mxGeometry relative="1" as="geometry">
            <mxPoint x="260" y="264" as="sourcePoint" />
          </mxGeometry>
        </mxCell>
        <mxCell id="Sv8G7FpVtAjmq9Fmex0C-9" value="" style="ellipse;whiteSpace=wrap;html=1;aspect=fixed;" parent="1" vertex="1">
          <mxGeometry x="245" y="243" width="30" height="30" as="geometry" />
        </mxCell>
        <mxCell id="Sv8G7FpVtAjmq9Fmex0C-12" value="Sí" style="text;html=1;align=center;verticalAlign=middle;resizable=0;points=[];autosize=1;" parent="1" vertex="1">
          <mxGeometry x="325" y="130" width="30" height="20" as="geometry" />
        </mxCell>
        <mxCell id="Sv8G7FpVtAjmq9Fmex0C-30" value="" style="edgeStyle=orthogonalEdgeStyle;rounded=0;orthogonalLoop=1;jettySize=auto;html=1;" parent="1" source="Sv8G7FpVtAjmq9Fmex0C-22" target="Sv8G7FpVtAjmq9Fmex0C-24" edge="1">
          <mxGeometry relative="1" as="geometry" />
        </mxCell>
        <mxCell id="Sv8G7FpVtAjmq9Fmex0C-22" value="(CONT_TICKS) = 100" style="shape=hexagon;perimeter=hexagonPerimeter2;whiteSpace=wrap;html=1;fixedSize=1;" parent="1" vertex="1">
          <mxGeometry x="190" y="345" width="140" height="40" as="geometry" />
        </mxCell>
        <mxCell id="XxXn5KxVC9YCPhlmLI4y-7" value="" style="edgeStyle=orthogonalEdgeStyle;rounded=0;orthogonalLoop=1;jettySize=auto;html=1;" edge="1" parent="1" source="Sv8G7FpVtAjmq9Fmex0C-23" target="XxXn5KxVC9YCPhlmLI4y-6">
          <mxGeometry relative="1" as="geometry" />
        </mxCell>
        <mxCell id="Sv8G7FpVtAjmq9Fmex0C-23" value="" style="ellipse;whiteSpace=wrap;html=1;aspect=fixed;" parent="1" vertex="1">
          <mxGeometry x="245" y="466" width="30" height="30" as="geometry" />
        </mxCell>
        <mxCell id="Sv8G7FpVtAjmq9Fmex0C-31" value="" style="edgeStyle=orthogonalEdgeStyle;rounded=0;orthogonalLoop=1;jettySize=auto;html=1;" parent="1" source="Sv8G7FpVtAjmq9Fmex0C-24" target="Sv8G7FpVtAjmq9Fmex0C-25" edge="1">
          <mxGeometry relative="1" as="geometry" />
        </mxCell>
        <mxCell id="Sv8G7FpVtAjmq9Fmex0C-24" value="&lt;div&gt;CONT_TICKS &amp;lt;- 0&lt;/div&gt;&lt;div&gt;C &amp;lt;- CONT_DIG &amp;lt;- 0&lt;br&gt;&lt;/div&gt;" style="whiteSpace=wrap;html=1;" parent="1" vertex="1">
          <mxGeometry x="358" y="337.5" width="135" height="55" as="geometry" />
        </mxCell>
        <mxCell id="Sv8G7FpVtAjmq9Fmex0C-28" value="" style="edgeStyle=orthogonalEdgeStyle;rounded=0;orthogonalLoop=1;jettySize=auto;html=1;" parent="1" source="Sv8G7FpVtAjmq9Fmex0C-25" target="Sv8G7FpVtAjmq9Fmex0C-26" edge="1">
          <mxGeometry relative="1" as="geometry" />
        </mxCell>
        <mxCell id="Sv8G7FpVtAjmq9Fmex0C-38" value="" style="edgeStyle=orthogonalEdgeStyle;rounded=0;orthogonalLoop=1;jettySize=auto;html=1;" parent="1" source="Sv8G7FpVtAjmq9Fmex0C-25" target="Sv8G7FpVtAjmq9Fmex0C-36" edge="1">
          <mxGeometry relative="1" as="geometry">
            <Array as="points">
              <mxPoint x="426" y="466" />
            </Array>
          </mxGeometry>
        </mxCell>
        <mxCell id="Sv8G7FpVtAjmq9Fmex0C-25" value="(CONT_DIG) = $80" style="shape=hexagon;perimeter=hexagonPerimeter2;whiteSpace=wrap;html=1;fixedSize=1;" parent="1" vertex="1">
          <mxGeometry x="355" y="411" width="140" height="40" as="geometry" />
        </mxCell>
        <mxCell id="Sv8G7FpVtAjmq9Fmex0C-39" style="edgeStyle=orthogonalEdgeStyle;rounded=0;orthogonalLoop=1;jettySize=auto;html=1;entryX=1;entryY=0.5;entryDx=0;entryDy=0;" parent="1" source="Sv8G7FpVtAjmq9Fmex0C-26" target="Sv8G7FpVtAjmq9Fmex0C-36" edge="1">
          <mxGeometry relative="1" as="geometry">
            <Array as="points">
              <mxPoint x="588" y="481" />
            </Array>
          </mxGeometry>
        </mxCell>
        <mxCell id="Sv8G7FpVtAjmq9Fmex0C-26" value="&lt;div&gt;&amp;nbsp;CONT_DIG &amp;lt;- 1&lt;br&gt;&lt;/div&gt;" style="whiteSpace=wrap;html=1;" parent="1" vertex="1">
          <mxGeometry x="520" y="416" width="135" height="30" as="geometry" />
        </mxCell>
        <mxCell id="Sv8G7FpVtAjmq9Fmex0C-27" value="&lt;h1&gt;Notas&lt;/h1&gt;&lt;p&gt;Tengo que inicializar&lt;/p&gt;&lt;p&gt;CONT_DIG en 1 &lt;br&gt;&lt;/p&gt;&lt;p&gt;en inicialización de variables&lt;/p&gt;&lt;p&gt;cargar 5000 en CONT_7SEG para que cuente 100 mS&lt;/p&gt;&lt;p&gt;DT =&amp;nbsp; BRILLO???&lt;br&gt;&lt;/p&gt;" style="text;html=1;strokeColor=none;fillColor=none;spacing=5;spacingTop=-20;whiteSpace=wrap;overflow=hidden;rounded=0;" parent="1" vertex="1">
          <mxGeometry x="580" y="80" width="310" height="150" as="geometry" />
        </mxCell>
        <mxCell id="Sv8G7FpVtAjmq9Fmex0C-33" value="Sí" style="text;html=1;align=center;verticalAlign=middle;resizable=0;points=[];autosize=1;" parent="1" vertex="1">
          <mxGeometry x="485" y="409" width="30" height="20" as="geometry" />
        </mxCell>
        <mxCell id="Sv8G7FpVtAjmq9Fmex0C-34" value="Sí" style="text;html=1;align=center;verticalAlign=middle;resizable=0;points=[];autosize=1;" parent="1" vertex="1">
          <mxGeometry x="315" y="335" width="30" height="20" as="geometry" />
        </mxCell>
        <mxCell id="XxXn5KxVC9YCPhlmLI4y-1" style="edgeStyle=orthogonalEdgeStyle;rounded=0;orthogonalLoop=1;jettySize=auto;html=1;entryX=1;entryY=0.5;entryDx=0;entryDy=0;" edge="1" parent="1" source="Sv8G7FpVtAjmq9Fmex0C-36" target="Sv8G7FpVtAjmq9Fmex0C-23">
          <mxGeometry relative="1" as="geometry" />
        </mxCell>
        <mxCell id="Sv8G7FpVtAjmq9Fmex0C-36" value="" style="ellipse;whiteSpace=wrap;html=1;aspect=fixed;" parent="1" vertex="1">
          <mxGeometry x="410.5" y="466" width="30" height="30" as="geometry" />
        </mxCell>
        <mxCell id="XxXn5KxVC9YCPhlmLI4y-2" value="No" style="text;html=1;align=center;verticalAlign=middle;resizable=0;points=[];autosize=1;" vertex="1" parent="1">
          <mxGeometry x="270" y="392.5" width="30" height="20" as="geometry" />
        </mxCell>
        <mxCell id="XxXn5KxVC9YCPhlmLI4y-24" value="" style="edgeStyle=orthogonalEdgeStyle;rounded=0;orthogonalLoop=1;jettySize=auto;html=1;" edge="1" parent="1" source="XxXn5KxVC9YCPhlmLI4y-4" target="XxXn5KxVC9YCPhlmLI4y-20">
          <mxGeometry relative="1" as="geometry" />
        </mxCell>
        <mxCell id="XxXn5KxVC9YCPhlmLI4y-10" value="" style="edgeStyle=orthogonalEdgeStyle;rounded=0;orthogonalLoop=1;jettySize=auto;html=1;" edge="1" parent="1" source="XxXn5KxVC9YCPhlmLI4y-6" target="XxXn5KxVC9YCPhlmLI4y-8">
          <mxGeometry relative="1" as="geometry" />
        </mxCell>
        <mxCell id="XxXn5KxVC9YCPhlmLI4y-16" value="" style="edgeStyle=orthogonalEdgeStyle;rounded=0;orthogonalLoop=1;jettySize=auto;html=1;" edge="1" parent="1" source="XxXn5KxVC9YCPhlmLI4y-6" target="XxXn5KxVC9YCPhlmLI4y-15">
          <mxGeometry relative="1" as="geometry" />
        </mxCell>
        <mxCell id="XxXn5KxVC9YCPhlmLI4y-6" value="(CONT_7SEG) = 5000" style="shape=hexagon;perimeter=hexagonPerimeter2;whiteSpace=wrap;html=1;fixedSize=1;" vertex="1" parent="1">
          <mxGeometry x="190" y="580" width="140" height="40" as="geometry" />
        </mxCell>
        <mxCell id="XxXn5KxVC9YCPhlmLI4y-14" value="" style="edgeStyle=orthogonalEdgeStyle;rounded=0;orthogonalLoop=1;jettySize=auto;html=1;" edge="1" parent="1" source="XxXn5KxVC9YCPhlmLI4y-8" target="XxXn5KxVC9YCPhlmLI4y-11">
          <mxGeometry relative="1" as="geometry" />
        </mxCell>
        <mxCell id="XxXn5KxVC9YCPhlmLI4y-8" value="&lt;div&gt;CONT_7SEG &amp;lt;- 0&lt;/div&gt;&lt;div&gt;CONT_7SEG + 1 &amp;lt;- 0&lt;/div&gt;" style="whiteSpace=wrap;html=1;" vertex="1" parent="1">
          <mxGeometry x="358" y="580" width="135" height="38.75" as="geometry" />
        </mxCell>
        <mxCell id="XxXn5KxVC9YCPhlmLI4y-9" value="&lt;div&gt;RR1 &amp;lt;- (CONT_7SEG)&lt;/div&gt;&lt;div&gt;RR1 &amp;lt;- RR1 +1&lt;/div&gt;&lt;div&gt;CONT_7SEG &amp;lt;- RR1&lt;br&gt;&lt;/div&gt;" style="whiteSpace=wrap;html=1;" vertex="1" parent="1">
          <mxGeometry x="155" y="510" width="210" height="50" as="geometry" />
        </mxCell>
        <mxCell id="XxXn5KxVC9YCPhlmLI4y-13" value="" style="edgeStyle=orthogonalEdgeStyle;rounded=0;orthogonalLoop=1;jettySize=auto;html=1;" edge="1" parent="1" source="XxXn5KxVC9YCPhlmLI4y-11" target="XxXn5KxVC9YCPhlmLI4y-12">
          <mxGeometry relative="1" as="geometry" />
        </mxCell>
        <mxCell id="XxXn5KxVC9YCPhlmLI4y-11" value="CONV_BIN_BCD" style="shape=process;whiteSpace=wrap;html=1;backgroundOutline=1;" vertex="1" parent="1">
          <mxGeometry x="520" y="579.75" width="137.5" height="39" as="geometry" />
        </mxCell>
        <mxCell id="XxXn5KxVC9YCPhlmLI4y-19" style="edgeStyle=orthogonalEdgeStyle;rounded=0;orthogonalLoop=1;jettySize=auto;html=1;entryX=1;entryY=0.5;entryDx=0;entryDy=0;" edge="1" parent="1" source="XxXn5KxVC9YCPhlmLI4y-12" target="XxXn5KxVC9YCPhlmLI4y-15">
          <mxGeometry relative="1" as="geometry">
            <Array as="points">
              <mxPoint x="589" y="705" />
            </Array>
          </mxGeometry>
        </mxCell>
        <mxCell id="XxXn5KxVC9YCPhlmLI4y-12" value="BCD_7SEG" style="shape=process;whiteSpace=wrap;html=1;backgroundOutline=1;" vertex="1" parent="1">
          <mxGeometry x="520" y="650" width="137.5" height="39" as="geometry" />
        </mxCell>
        <mxCell id="XxXn5KxVC9YCPhlmLI4y-18" value="" style="edgeStyle=orthogonalEdgeStyle;rounded=0;orthogonalLoop=1;jettySize=auto;html=1;" edge="1" parent="1" source="XxXn5KxVC9YCPhlmLI4y-15" target="XxXn5KxVC9YCPhlmLI4y-17">
          <mxGeometry relative="1" as="geometry" />
        </mxCell>
        <mxCell id="XxXn5KxVC9YCPhlmLI4y-15" value="" style="ellipse;whiteSpace=wrap;html=1;aspect=fixed;" vertex="1" parent="1">
          <mxGeometry x="245" y="690" width="30" height="30" as="geometry" />
        </mxCell>
        <mxCell id="XxXn5KxVC9YCPhlmLI4y-27" value="" style="edgeStyle=orthogonalEdgeStyle;rounded=0;orthogonalLoop=1;jettySize=auto;html=1;" edge="1" parent="1" source="XxXn5KxVC9YCPhlmLI4y-17" target="XxXn5KxVC9YCPhlmLI4y-22">
          <mxGeometry relative="1" as="geometry" />
        </mxCell>
        <mxCell id="XxXn5KxVC9YCPhlmLI4y-17" value="&lt;div&gt;R1 &amp;lt;- #100&lt;/div&gt;&lt;div&gt;R1 &amp;lt;- R1 - (BRILLO)&lt;br&gt;&lt;/div&gt;&lt;div&gt;R2 &amp;lt;- R1&lt;/div&gt;&lt;div&gt;R1 &amp;lt;- #100&lt;/div&gt;&lt;div&gt;R1 &amp;lt;- R1 -R2&lt;/div&gt;&lt;div&gt;DT &amp;lt;- R1&lt;br&gt;&lt;/div&gt;" style="whiteSpace=wrap;html=1;" vertex="1" parent="1">
          <mxGeometry x="192.5" y="750" width="135" height="100" as="geometry" />
        </mxCell>
        <mxCell id="XxXn5KxVC9YCPhlmLI4y-20" value="Apagar Puerto B" style="whiteSpace=wrap;html=1;" vertex="1" parent="1">
          <mxGeometry x="360" y="865" width="135" height="70" as="geometry" />
        </mxCell>
        <mxCell id="XxXn5KxVC9YCPhlmLI4y-22" value="Revisar con Dig y poner ese valor en B y luego retornar" style="whiteSpace=wrap;html=1;" vertex="1" parent="1">
          <mxGeometry x="192.5" y="950" width="135" height="70" as="geometry" />
        </mxCell>
        <mxCell id="XxXn5KxVC9YCPhlmLI4y-25" value="Sí" style="text;html=1;align=center;verticalAlign=middle;resizable=0;points=[];autosize=1;" vertex="1" parent="1">
          <mxGeometry x="315" y="880" width="30" height="20" as="geometry" />
        </mxCell>
        <mxCell id="XxXn5KxVC9YCPhlmLI4y-4" value="CONT_TICKS = DT" style="shape=hexagon;perimeter=hexagonPerimeter2;whiteSpace=wrap;html=1;fixedSize=1;" vertex="1" parent="1">
          <mxGeometry x="187.5" y="880" width="140" height="40" as="geometry" />
        </mxCell>
      </root>
    </mxGraphModel>
  </diagram>
</mxfile>
